<?xml version="1.0" standalone="no"?>
<!DOCTYPE svg PUBLIC "-//W3C//DTD SVG 20010904//EN"
 "http://www.w3.org/TR/2001/REC-SVG-20010904/DTD/svg10.dtd">
<svg version="1.0" xmlns="http://www.w3.org/2000/svg"
 width="2272.000000pt" height="2576.000000pt" viewBox="0 0 2272.000000 2576.000000"
 preserveAspectRatio="xMidYMid meet">

<g transform="translate(0.000000,2576.000000) scale(0.100000,-0.100000)"
fill="#000000" stroke="none">
<path d="M11023 25602 l-5493 -2 -2 -7338 -3 -7337 -2667 -5 c-1466 -3 -2670
-8 -2674 -12 -9 -10 -1 -18 611 -598 55 -52 186 -180 292 -284 106 -104 197
-192 203 -196 5 -3 83 -78 173 -166 89 -87 252 -244 362 -349 110 -104 274
-262 365 -350 91 -88 239 -233 330 -321 91 -89 203 -196 250 -240 183 -172
337 -320 605 -586 154 -152 291 -286 305 -298 14 -12 86 -81 160 -153 75 -73
176 -170 225 -216 100 -94 321 -307 555 -535 184 -179 395 -383 540 -520 120
-114 549 -527 785 -756 170 -165 337 -325 365 -350 28 -25 234 -223 445 -430
255 -248 425 -412 650 -625 99 -93 285 -274 415 -401 129 -126 280 -273 334
-325 189 -179 341 -325 676 -649 185 -179 432 -417 550 -529 118 -113 285
-273 370 -355 532 -516 693 -671 845 -815 169 -160 311 -297 533 -514 l212
-209 30 19 c17 11 168 152 336 314 169 161 328 314 353 338 55 53 253 244 446
431 214 207 537 518 920 885 143 137 323 311 400 386 77 75 154 149 170 164
17 14 84 79 150 143 297 288 542 524 805 776 69 66 193 186 275 266 227 220
677 654 689 665 6 6 70 66 141 135 72 69 254 244 405 390 151 146 336 324 410
395 74 72 196 189 270 261 74 71 193 186 264 254 71 69 134 130 140 135 10 9
99 95 486 470 86 82 209 201 275 264 66 63 246 236 400 385 154 149 339 327
410 396 72 69 184 178 250 242 66 64 134 129 150 144 17 15 154 147 305 293
254 246 327 316 635 612 61 59 124 119 140 134 17 15 104 99 195 188 91 88
226 219 300 291 75 72 203 196 285 276 83 80 193 185 245 234 52 49 167 160
255 246 88 86 272 263 408 395 174 167 244 241 235 247 -7 4 -1211 8 -2675 8
l-2663 0 0 7339 0 7339 -22 5 c-13 3 -162 4 -333 4 -170 -1 -2782 -3 -5802 -5z
m2403 -5387 c110 -19 193 -57 263 -121 163 -147 142 -403 -45 -572 -138 -125
-294 -196 -591 -272 l-42 -11 -46 -147 c-63 -201 -115 -344 -131 -361 -11 -12
-16 -12 -38 3 -15 9 -38 34 -52 56 -24 36 -26 47 -21 103 3 34 29 139 57 232
108 359 190 720 190 833 0 19 -9 45 -20 59 -25 32 -26 75 -1 97 30 27 154 74
239 90 42 9 86 17 97 19 36 8 51 7 141 -8z m-4021 -39 c58 -62 70 -99 68 -211
-1 -82 -9 -132 -46 -275 -24 -96 -43 -176 -42 -178 1 -1 68 77 147 175 205
251 466 503 521 503 28 0 107 -61 107 -83 0 -14 -89 -108 -274 -291 -256 -254
-355 -364 -375 -417 -22 -62 53 -224 149 -319 62 -61 104 -89 304 -201 84 -47
111 -76 101 -108 -10 -31 -54 -41 -137 -29 -222 30 -454 215 -538 428 -7 19
-19 44 -26 54 -12 18 -15 16 -35 -30 -11 -27 -47 -128 -80 -225 -72 -216 -77
-229 -102 -229 -25 0 -73 52 -87 96 -18 53 -8 99 138 674 58 226 109 463 121
560 11 95 25 140 42 140 6 0 26 -15 44 -34z m1887 -7 c57 -6 112 -15 124 -19
31 -12 37 -48 11 -65 -26 -16 -162 -38 -375 -61 -85 -8 -188 -21 -230 -27
l-76 -12 -17 -116 c-15 -98 -43 -225 -66 -303 -5 -18 4 -18 253 -15 l259 4 3
-25 c8 -70 -158 -122 -429 -136 l-136 -7 -21 -66 c-32 -99 -92 -338 -92 -366
0 -45 37 -58 142 -51 148 11 232 24 399 63 86 20 164 33 173 30 26 -10 20 -64
-11 -93 -82 -76 -366 -163 -588 -180 -181 -14 -304 71 -305 211 0 52 50 251
139 558 64 219 97 373 106 502 9 113 22 135 94 155 107 29 458 39 643 19z
m1226 1 c107 -12 148 -24 157 -48 15 -41 -58 -61 -310 -87 -87 -9 -210 -24
-274 -33 l-116 -17 -16 -110 c-15 -96 -47 -250 -65 -309 -6 -18 3 -18 252 -15
l259 4 3 -27 c5 -40 -46 -73 -149 -97 -94 -22 -258 -41 -354 -41 -52 0 -65 -3
-69 -17 -45 -154 -79 -280 -93 -349 l-18 -86 25 -20 c22 -18 34 -19 120 -14
109 8 227 22 285 36 22 5 93 21 158 36 107 25 119 26 133 12 26 -26 9 -72 -37
-102 -114 -76 -338 -141 -556 -161 -93 -9 -170 8 -230 49 -69 47 -85 83 -78
181 4 78 14 115 140 560 60 212 81 308 95 435 17 163 21 173 79 194 27 10 89
21 138 25 133 12 411 12 521 1z m-1748 -2858 c28 -28 44 -57 63 -119 28 -86
69 -306 87 -463 6 -52 16 -98 22 -101 7 -4 32 -5 58 -2 51 6 116 -16 126 -42
8 -21 -18 -49 -59 -63 -17 -6 -50 -17 -72 -25 l-40 -15 0 -279 c0 -240 -2
-283 -17 -315 -14 -32 -22 -38 -47 -38 -57 0 -78 80 -105 408 -8 90 -16 166
-20 169 -3 3 -52 -7 -108 -22 -57 -16 -141 -38 -188 -50 -95 -26 -108 -37
-140 -123 -11 -31 -27 -70 -34 -87 -7 -16 -24 -57 -37 -90 -13 -33 -40 -91
-59 -130 -45 -89 -69 -96 -125 -34 -33 37 -37 46 -33 84 3 23 28 95 57 161 28
65 51 122 51 127 0 4 -8 7 -17 7 -28 0 -82 37 -95 65 -9 21 -8 28 7 45 18 20
117 70 140 70 35 0 65 46 123 187 33 81 98 238 143 348 88 214 108 252 160
302 30 29 90 62 113 63 4 0 25 -17 46 -38z m959 -7 c53 -46 75 -91 73 -156 -2
-60 -32 -228 -57 -309 -7 -25 -25 -90 -40 -145 -14 -55 -35 -127 -45 -160 -10
-33 -28 -94 -40 -135 -12 -41 -32 -109 -45 -150 -37 -120 -45 -176 -28 -200
12 -17 25 -20 98 -20 115 0 278 24 442 65 146 37 163 36 163 -13 0 -50 -100
-119 -245 -169 -153 -52 -404 -79 -497 -53 -51 15 -119 68 -140 110 -36 70
-21 147 122 657 75 263 128 483 141 582 15 117 16 121 43 121 14 0 38 -11 55
-25z m1129 -23 c66 -52 86 -91 151 -287 55 -168 161 -434 183 -462 6 -7 14
-13 18 -13 5 0 42 42 82 93 41 50 155 193 254 317 216 271 300 360 339 360 35
0 90 -41 111 -83 15 -28 15 -41 5 -111 -12 -77 -60 -265 -135 -524 -19 -68
-54 -199 -76 -290 -48 -197 -63 -253 -93 -347 -19 -62 -25 -70 -47 -70 -32 0
-67 51 -76 112 -14 91 42 373 145 738 33 115 59 211 57 212 -2 2 -53 -59 -113
-134 -353 -439 -416 -503 -494 -503 -30 0 -80 35 -108 76 -30 44 -90 185 -134
314 -47 140 -57 164 -63 158 -2 -3 -13 -50 -24 -104 -47 -244 -161 -664 -222
-821 -29 -75 -64 -69 -108 16 -34 64 -24 127 84 563 104 419 150 628 161 728
7 70 28 115 48 104 7 -4 31 -23 55 -42z m-3149 24 c38 -20 110 -100 127 -143
27 -64 10 -73 -98 -51 -51 11 -65 10 -115 -7 -115 -39 -312 -209 -411 -354
-136 -199 -211 -419 -188 -546 11 -56 76 -121 142 -142 51 -16 61 -16 162 -1
133 20 176 35 325 109 65 33 127 59 138 59 12 0 23 -10 30 -27 8 -21 5 -33
-15 -64 -48 -72 -223 -187 -370 -242 -71 -27 -94 -30 -191 -31 -103 -1 -114 1
-170 29 -73 36 -175 136 -209 202 -55 110 -54 239 5 413 100 301 345 617 570
735 135 71 214 89 268 61z m977 -2795 c12 -24 31 -99 43 -165 38 -211 29 -190
86 -196 65 -6 66 -27 3 -60 l-48 -25 0 -161 c0 -169 -8 -204 -44 -191 -26 10
-37 53 -48 190 -8 86 -15 130 -24 134 -15 6 -154 -31 -193 -52 -16 -8 -35 -32
-46 -57 -49 -115 -94 -206 -106 -213 -15 -10 -59 38 -58 63 0 9 13 49 29 87
l29 70 -32 26 c-28 24 -30 30 -20 52 8 17 24 27 55 35 50 13 48 10 114 172
111 274 153 343 208 338 26 -2 35 -11 52 -47z m965 27 c17 -13 35 -33 40 -45
19 -49 -37 -397 -92 -578 -35 -113 -58 -162 -87 -188 -53 -48 -86 9 -248 433
-14 36 -30 76 -36 90 l-10 25 -13 -26 c-13 -24 -56 -189 -105 -402 -12 -54
-30 -107 -40 -119 l-17 -22 -27 27 c-14 14 -26 37 -26 52 0 14 25 127 56 253
30 125 66 281 80 347 13 66 26 130 29 143 8 34 32 26 61 -20 29 -45 117 -259
198 -481 28 -77 55 -139 61 -139 27 1 93 292 115 512 11 114 19 160 26 160 3
0 19 -10 35 -22z m361 1 c29 -6 100 -33 157 -62 125 -60 221 -147 265 -239 40
-81 43 -126 16 -183 -64 -132 -357 -333 -500 -343 -65 -4 -92 14 -111 76 -12
41 -12 38 91 432 17 63 33 138 36 166 6 49 5 52 -25 73 -37 27 -53 54 -45 75
7 19 42 20 116 5z m1142 -1790 c51 -40 79 -97 78 -160 -1 -102 -59 -338 -175
-724 -96 -317 -105 -374 -61 -394 42 -19 263 4 444 45 194 45 207 47 223 41
31 -12 20 -57 -24 -99 -97 -93 -362 -168 -589 -168 -80 0 -103 4 -145 24 -93
45 -125 90 -125 175 0 54 54 275 143 591 86 301 129 482 142 595 4 33 9 68 11
78 7 24 45 22 78 -4z m1168 -16 c16 -15 38 -47 49 -71 20 -41 21 -49 9 -120
-17 -112 -72 -333 -128 -522 -58 -195 -105 -361 -127 -447 -17 -70 -9 -97 32
-108 46 -11 282 17 433 51 194 45 207 47 223 41 10 -4 17 -17 17 -31 0 -108
-341 -236 -630 -236 -78 0 -104 4 -145 24 -55 25 -111 82 -121 122 -15 60 17
216 116 559 77 269 127 471 150 605 30 185 26 173 63 166 17 -4 44 -18 59 -33z
m-5575 6 c49 -24 98 -81 89 -104 -7 -20 -23 -26 -196 -76 -80 -23 -181 -59
-226 -80 -83 -39 -164 -106 -164 -136 0 -10 89 -105 198 -213 205 -201 247
-253 283 -349 56 -150 -29 -320 -208 -414 -38 -20 -96 -43 -129 -52 -75 -19
-233 -19 -309 0 -161 42 -305 172 -305 275 0 42 10 60 33 60 19 0 80 -39 102
-66 24 -29 133 -96 179 -109 160 -48 365 26 448 160 52 86 15 143 -283 432
-58 56 -123 127 -145 159 -34 49 -39 64 -38 108 3 170 186 320 494 407 86 24
125 23 177 -2z m1174 -12 c51 -38 106 -108 115 -144 11 -42 -6 -48 -98 -34
-78 12 -86 12 -138 -9 -174 -69 -402 -312 -511 -544 -46 -100 -68 -177 -76
-272 -5 -62 -3 -78 17 -118 35 -70 112 -116 193 -116 45 0 176 22 242 40 22 6
99 41 172 77 72 35 140 63 150 61 26 -5 28 -56 3 -95 -24 -39 -161 -143 -244
-185 -137 -69 -182 -81 -306 -82 -106 -1 -119 1 -170 26 -98 48 -199 153 -229
238 -62 176 8 446 183 709 162 243 334 392 526 458 90 31 120 29 171 -10z
m1134 4 c122 -43 212 -125 236 -215 17 -61 4 -160 -28 -225 -55 -110 -162
-198 -390 -320 -91 -49 -129 -75 -131 -89 -6 -37 115 -164 357 -377 108 -95
161 -153 161 -177 0 -4 -8 -14 -17 -23 -22 -23 -101 -16 -165 13 -144 67 -450
368 -509 501 -28 62 -22 75 -140 -323 -30 -99 -61 -189 -71 -200 l-16 -21 -29
21 c-15 11 -39 36 -51 55 -33 48 -26 108 43 359 112 410 175 680 175 756 0 12
-16 45 -35 74 -19 29 -35 57 -35 64 0 16 47 60 85 79 38 19 159 56 222 67 85
16 270 5 338 -19z m1280 -1 c28 -13 78 -51 111 -85 214 -212 213 -581 -3 -921
-165 -262 -409 -436 -610 -436 -188 -1 -353 204 -353 436 0 77 33 247 68 353
102 302 321 572 538 663 68 28 179 23 249 -10z m1704 -2854 c15 -8 44 -33 64
-55 44 -49 46 -71 22 -276 -43 -357 -111 -676 -195 -912 -33 -91 -95 -197
-127 -215 -27 -17 -31 -17 -63 0 -19 9 -49 38 -66 64 -18 26 -94 203 -169 395
-76 191 -153 387 -172 436 -19 48 -38 87 -43 87 -11 0 -40 -105 -135 -490
-123 -497 -124 -500 -165 -500 -22 0 -78 62 -86 96 -12 48 4 127 115 579 61
248 122 518 136 600 29 166 38 195 59 195 55 0 119 -113 235 -417 45 -117 126
-324 180 -460 54 -137 101 -261 105 -276 14 -59 49 10 102 202 57 209 104 499
119 736 7 114 21 193 37 212 13 16 13 16 47 -1z m-4989 -29 c279 -78 534 -258
660 -467 86 -143 102 -266 50 -375 -69 -144 -344 -381 -583 -502 -127 -63
-281 -108 -364 -104 -32 2 -81 47 -109 103 -45 88 -41 111 106 663 39 143 81
316 95 385 29 141 34 121 -50 180 -34 24 -75 85 -75 113 0 7 6 19 13 26 17 19
151 7 257 -22z m1787 -6 c121 -65 215 -199 248 -356 43 -203 -20 -447 -173
-673 -207 -306 -503 -469 -698 -383 -106 47 -206 183 -235 320 -15 71 1 252
32 360 96 338 295 610 534 732 77 39 83 41 155 37 61 -4 87 -11 137 -37z m700
-2 c24 -17 56 -49 70 -71 l27 -40 -28 -167 c-15 -91 -37 -215 -47 -276 -17
-95 -67 -428 -85 -564 -5 -41 -4 -44 10 -32 9 8 46 57 83 110 133 193 272 351
361 413 36 25 48 29 66 20 33 -15 57 -74 73 -182 51 -340 80 -432 137 -438 47
-6 71 5 120 55 116 120 184 349 173 583 -6 125 -23 202 -63 285 -41 83 -89
124 -175 146 -138 38 -209 120 -148 175 17 15 35 19 94 18 217 -4 379 -149
444 -399 63 -238 42 -515 -53 -719 -103 -222 -236 -339 -386 -340 -56 -1 -73
3 -108 26 -75 50 -118 151 -151 355 -33 198 -31 195 -67 140 -128 -199 -307
-425 -386 -487 -65 -52 -95 -52 -141 -1 -70 78 -71 107 -12 586 19 154 41 368
50 475 29 379 28 376 72 365 14 -3 46 -20 70 -36z"/>
<path d="M13291 20040 c-25 -5 -66 -17 -92 -25 l-47 -16 0 -92 c-1 -96 -23
-224 -66 -386 -14 -52 -23 -98 -20 -102 6 -10 88 14 179 53 217 91 369 245
369 374 0 42 -6 59 -35 99 -61 86 -166 120 -288 95z"/>
<path d="M10660 17098 c0 -7 -22 -69 -49 -138 -126 -317 -161 -413 -156 -418
3 -3 71 7 150 23 157 31 149 26 146 100 -4 68 -50 379 -62 413 -11 32 -29 44
-29 20z"/>
<path d="M10595 14391 c-22 -43 -105 -257 -105 -270 0 -20 138 -4 163 19 10 9
-21 260 -33 274 -5 4 -16 -6 -25 -23z"/>
<path d="M12064 14373 c4 -18 -12 -96 -45 -218 -84 -312 -88 -335 -60 -335 34
0 122 39 191 85 114 76 210 183 210 235 0 61 -112 184 -212 234 -70 35 -91 35
-84 -1z"/>
<path d="M10830 12569 c-92 -12 -157 -28 -171 -45 -8 -9 -8 -22 -1 -41 13 -39
-10 -218 -47 -363 -16 -63 -28 -116 -26 -118 4 -4 264 139 327 182 67 44 157
138 181 189 63 131 -57 220 -263 196z"/>
<path d="M12160 12577 c-178 -86 -383 -380 -455 -653 -35 -135 -43 -245 -21
-312 33 -98 98 -162 164 -162 45 0 161 63 228 124 225 203 368 513 335 725
-14 87 -33 141 -71 195 -53 78 -123 111 -180 83z"/>
<path d="M9096 9633 c-3 -3 -6 -29 -6 -57 0 -89 -41 -265 -135 -581 -34 -117
-95 -364 -95 -388 0 -17 5 -18 37 -12 180 34 478 223 617 394 96 118 105 163
51 266 -44 85 -119 171 -203 235 -73 55 -255 153 -266 143z"/>
<path d="M10625 9682 c-109 -64 -214 -183 -313 -356 -84 -145 -135 -305 -148
-457 -10 -121 29 -225 105 -276 44 -30 91 -29 154 3 151 76 303 243 402 442
104 211 106 430 6 576 -64 93 -127 114 -206 68z"/>
</g>
</svg>
